<?xml version="1.0" encoding="UTF-8"?>
<svg width="1200pt" height="1200pt" version="1.1" viewBox="0 0 1200 1200" xmlns="http://www.w3.org/2000/svg">
 <path d="m1008.4 42h-816.8c-16.543 0-30 13.457-30 30v1056c0 16.547 13.457 30 30 30h816.81c16.547 0 30-13.453 30-30l-0.003906-1056c0-16.543-13.449-30-30-30zm-6 1080h-804.8v-1044h804.81zm-501.55-320.32c7.7539 6.2578 19.082 5.0156 25.305-2.7305 6.2383-7.7344 5.0156-19.066-2.7266-25.301-16.23-13.07-39.363-21.297-65.184-23.336v-12.383c0-9.9375-8.0547-18-18-18-9.9453 0-18 8.0625-18 18v13.891c-36.953 6.2969-64.809 26.887-68.445 53.82-1.8477 13.652 2.6328 27.926 12.605 40.184 12.547 15.418 32.684 26.652 55.84 31.828v58.367c-17.234-1.793-32.656-7.1211-42.609-15.137-7.7383-6.2461-19.074-5.0039-25.312 2.7305-6.2344 7.7344-5.0117 19.066 2.7305 25.301 16.246 13.094 39.391 21.309 65.191 23.34v12.379c0 9.9375 8.0547 18 18 18 9.9453 0 18-8.0625 18-18v-13.859c36.945-6.293 64.805-26.914 68.438-53.852 1.9219-14.215-2.3945-28.652-12.16-40.641-12.234-15.043-32.32-25.492-56.277-29.777v-59.957c17.242 1.8008 32.668 7.1289 42.605 15.133zm-78.605 38.762c-13.32-4.3203-22.828-11.086-27.922-17.336-2.5586-3.1523-5.4883-7.9102-4.8516-12.656 1.0664-7.9102 13.434-17.32 32.77-21.879zm64.355 58.551c3.5156 4.3242 4.9961 8.7422 4.4141 13.125-1.0664 7.9023-13.461 17.309-32.766 21.875v-50.73c12.441 3.1484 22.562 8.6133 28.352 15.73zm363.07-89.391c0 9.9375-8.0625 18-18 18h-242.08c-9.9453 0-18-8.0625-18-18s8.0547-18 18-18h242.07c9.9414 0 18.004 8.0625 18.004 18zm0 103.36c0 9.9375-8.0625 18-18 18h-242.08c-9.9453 0-18-8.0625-18-18s8.0547-18 18-18h242.07c9.9414 0 18.004 8.0625 18.004 18zm-494.23-268.71c-29.984-46.754-45.828-100.86-45.828-156.48 0-160.12 130.27-290.39 290.39-290.39 160.13 0 290.39 130.27 290.39 290.39 0 55.629-15.844 109.74-45.82 156.48-3.4336 5.3672-9.2461 8.2852-15.164 8.2852-3.3281 0-6.6914-0.91406-9.7031-2.8477-8.3672-5.3672-10.805-16.5-5.4375-24.867 26.25-40.941 40.125-88.328 40.125-137.05 0-140.27-114.12-254.39-254.39-254.39-140.27 0-254.39 114.12-254.39 254.39 0 48.723 13.875 96.109 40.133 137.05 5.3672 8.3672 2.9297 19.5-5.4375 24.867-8.3633 5.3906-19.496 2.9414-24.867-5.4375zm172.68-317c4.9766 8.6094 2.0195 19.617-6.5859 24.586-2.8359 1.6406-5.9297 2.4219-8.9844 2.4219-6.2227 0-12.27-3.2305-15.605-9.0078l-12.918-22.375c-18.973 13.387-35.52 29.934-48.906 48.91l22.371 12.914c8.6094 4.9688 11.559 15.98 6.5859 24.586-3.3281 5.7695-9.3828 9.0078-15.605 9.0078-3.0508 0-6.1445-0.77734-8.9844-2.4219l-22.363-12.91c-9.6133 20.648-15.914 43.105-18.023 66.805h25.926c9.9453 0 18 8.0547 18 18 0 9.9453-8.0547 18-18 18h-26.012c2.0781 23.293 8.2852 45.852 18.031 66.848l22.438-12.953c8.625-4.9844 19.621-2.0156 24.586 6.5859 4.9766 8.6094 2.0195 19.617-6.5859 24.586l-22.406 12.934c4.5586 6.4727 9.3711 12.793 14.719 18.746 6.6406 7.3945 6.0273 18.773-1.3711 25.418-3.4336 3.082-7.7344 4.6055-12.016 4.6055-4.9336 0-9.8438-2.0156-13.398-5.9766-39.223-43.676-60.82-100.07-60.82-158.8 0-131.13 106.68-237.82 237.82-237.82 131.14 0 237.83 106.69 237.83 237.82 0 58.723-21.609 115.11-60.832 158.8-6.6562 7.3945-18.023 8.0039-25.418 1.3711-7.3945-6.6445-8.0156-18.023-1.3711-25.418 5.3477-5.9531 10.16-12.273 14.719-18.742l-22.406-12.938c-8.6133-4.9688-11.555-15.98-6.5859-24.586 4.9688-8.6172 15.984-11.559 24.586-6.5859l22.445 12.957c9.75-21 15.961-43.555 18.039-66.852h-26.02c-9.9375 0-18-8.0547-18-18 0-9.9453 8.0625-18 18-18h25.938c-2.1094-23.703-8.4102-46.16-18.027-66.809l-22.371 12.914c-2.8359 1.6406-5.9297 2.4219-8.9883 2.4219-6.2109 0-12.27-3.2305-15.598-9.0078-4.9688-8.6094-2.0273-19.617 6.5859-24.586l22.379-12.922c-13.391-18.977-29.934-35.523-48.91-48.91l-12.91 22.375c-3.3281 5.7773-9.3867 9.0117-15.598 9.0117-3.0586 0-6.1523-0.77734-8.9883-2.4141-8.6016-4.9688-11.555-15.98-6.5859-24.586l12.91-22.371c-20.652-9.6172-43.113-15.918-66.816-18.027v25.93c0 9.9453-8.0508 18-17.992 18-9.9453 0-18-8.0547-18-18v-25.93c-23.699 2.1094-46.156 8.4102-66.809 18.027zm119.51 160.52c0-2.1719-0.35938-4.2461-0.64063-6.3398l68.422-39.504c8.6133-4.9688 11.555-15.98 6.5859-24.586-4.9688-8.6172-15.984-11.547-24.586-6.5859l-68.418 39.5c-8.0547-6.2383-18.027-10.105-28.98-10.105-26.258 0-47.613 21.363-47.613 47.617 0 26.258 21.355 47.617 47.613 47.617s47.617-21.359 47.617-47.613zm-59.23 0c0-6.4023 5.207-11.617 11.613-11.617 6.4023 0 11.617 5.2148 11.617 11.617s-5.2148 11.613-11.617 11.613-11.613-5.2109-11.613-11.613z" fill="#fff"/>
</svg>
