<?xml version="1.0" encoding="UTF-8"?>
<svg width="1200pt" height="1200pt" version="1.1" viewBox="0 0 1200 1200" xmlns="http://www.w3.org/2000/svg">
 <g fill="#fff">
  <path d="m652.5 476.25h283.12c9.375 0 18.75-7.5 18.75-18.75 0-9.375-7.5-18.75-18.75-18.75h-283.12c-9.375 0-18.75 7.5-18.75 18.75 1.875 11.25 9.375 18.75 18.75 18.75z"/>
  <path d="m652.5 607.5h283.12c9.375 0 18.75-7.5 18.75-18.75 0-9.375-7.5-18.75-18.75-18.75h-283.12c-9.375 0-18.75 7.5-18.75 18.75 1.875 11.25 9.375 18.75 18.75 18.75z"/>
  <path d="m935.62 961.88h-283.12c-9.375 0-18.75 7.5-18.75 18.75 0 9.375 7.5 18.75 18.75 18.75h283.12c9.375 0 18.75-7.5 18.75-18.75 0-9.375-9.375-18.75-18.75-18.75z"/>
  <path d="m1143.8 157.5h-155.62c0-9.375-7.5-16.875-18.75-16.875h-41.25v-46.875c0-9.375-7.5-18.75-18.75-18.75h-251.25c-9.375 0-18.75 7.5-18.75 18.75v48.75h-39.375c-9.375 0-16.875 7.5-18.75 16.875h-155.62c-9.375 0-18.75 7.5-18.75 18.75v234.38l-198.75-204.38c-3.75-3.75-7.5-5.625-13.125-5.625s-9.375 1.875-13.125 5.625l-138.75 140.62c-7.5 7.5-7.5 18.75 0 26.25l33.75 35.625 330 339.38v356.25c0 9.375 7.5 18.75 18.75 18.75h718.12c9.375 0 18.75-7.5 18.75-18.75v-930c0-9.375-7.5-18.75-18.75-18.75zm-526.88 20.625h41.25c9.375 0 18.75-7.5 18.75-18.75v-46.875h217.5v48.75c0 9.375 7.5 18.75 18.75 18.75h41.25v97.5h-337.5zm-16.875 135h371.25c9.375 0 18.75-7.5 18.75-18.75v-33.75h73.125v761.25h-555v-211.88l136.88 52.5c3.75 1.875 7.5 3.75 13.125 5.625l1.875 1.875c1.875 0 3.75 1.875 5.625 1.875h1.875 5.625 1.875 249.38c15 0 28.125-7.5 28.125-18.75 0-9.375-13.125-18.75-28.125-18.75h-243.75l-33.75-95.625c3.75 1.875 7.5 1.875 11.25 1.875h271.88c13.125 0 24.375-7.5 24.375-18.75 0-9.375-11.25-18.75-24.375-18.75h-271.88c-9.375 0-15 3.75-20.625 9.375l-30-88.125c0-1.875-1.875-5.625-3.75-7.5l-3.75-5.625-76.875-80.625-15-15v-255h73.125v33.75c0 9.375 7.5 18.75 18.75 18.75zm-16.875 348.75 20.625 61.875c-13.125 5.625-26.25 15-37.5 24.375s-18.75 22.5-26.25 35.625l-60-22.5zm-391.88-273.75 24.375-26.25 305.62 307.5-26.25 24.375zm446.25 433.12-61.875-24.375c3.75-7.5 9.375-15 16.875-22.5s15-13.125 24.375-16.875zm-193.12-626.25h136.88v28.125h-90c-9.375 0-18.75 7.5-18.75 18.75v236.25l-28.125-28.125zm-181.88 120 150 153.75 151.88 157.5-16.875 16.875-305.62-307.5zm-159.38 69.375-22.5-22.5 114.38-114.38 41.25 43.125-114.38 114.38zm45 46.875 16.875-18.75 303.75 307.5-20.625 20.625zm978.75 656.25h-682.5v-303.75l28.125 11.25v245.62c0 9.375 7.5 18.75 18.75 18.75h588.75c9.375 0 18.75-7.5 18.75-18.75v-798.75c0-9.375-7.5-18.75-18.75-18.75h-90v-28.125h136.88z"/>
  <path d="m785.62 133.12c-30 0-56.25 24.375-56.25 56.25s24.375 56.25 56.25 56.25c30 0 56.25-24.375 56.25-56.25s-26.25-56.25-56.25-56.25zm0 75c-11.25 0-18.75-9.375-18.75-18.75 0-11.25 9.375-18.75 18.75-18.75 11.25 0 18.75 9.375 18.75 18.75s-9.375 18.75-18.75 18.75z"/>
 </g>
</svg>
