<?xml version="1.0" encoding="UTF-8"?>
<svg width="1200pt" height="1200pt" version="1.1" viewBox="0 0 1200 1200" xmlns="http://www.w3.org/2000/svg">
 <g fill="#fff">
  <path d="m1056.3 585.5c0-21.098-7.9102-40.879-23.734-56.703-14.504-14.504-31.648-22.418-51.43-23.734 1.3203-21.098-2.6367-43.516-18.461-60.66-14.504-14.504-34.285-22.418-54.066-23.734-1.3203-19.781-9.2305-39.559-23.734-54.066-14.504-14.504-34.285-22.418-54.066-23.734-1.3203-19.781-9.2305-39.559-23.734-54.066-14.504-14.504-35.605-23.734-56.703-23.734-21.098 0-40.879 7.9102-56.703 23.734l-125.28 133.18c-7.9102 2.6367-39.559 10.551-85.715-30.328-7.9102-7.9102-21.098-7.9102-29.012 0-2.6367 2.6367-64.617 55.383-73.848 152.97-5.2734 52.746-27.691 73.848-29.012 75.164l-25.055 25.055c-9.2305 9.2305-9.2305 22.418 0 31.648l259.78 259.78c3.957 3.957 9.2305 6.5938 15.824 6.5938s11.867-2.6367 15.824-6.5938l25.055-25.055s22.418-23.734 75.164-29.012c92.309-9.2305 145.05-65.934 151.65-73.848l164.84-164.84c14.508-15.824 22.422-35.605 22.422-58.02z"/>
  <path d="m305.93 151.65c-23.734 29.012-21.098 72.527 6.5938 100.22l56.703 56.703c26.375 26.375 68.57 29.012 98.902 6.5938l81.758 81.758 80.441-80.441-79.125-79.117-3.957-3.957c22.418-29.012 19.781-71.207-6.5938-98.902l-56.699-55.383c-27.691-27.691-69.891-29.012-100.22-6.5938l76.484 76.484-77.805 79.121z"/>
  <path d="m1018 705.5-81.758 80.441 63.297 63.297c22.418 22.418 59.34 22.418 80.441 0 22.418-22.418 22.418-59.34 0-80.441z"/>
  <path d="m254.5 667.25c-9.2305-9.2305-22.418-9.2305-31.648 0l-117.36 117.36c-3.957 3.957-6.5938 9.2305-6.5938 15.824s2.6367 11.867 6.5938 15.824l330.99 330.99c3.957 3.957 10.551 6.5938 15.824 6.5938 5.2734 0 11.867-2.6367 15.824-6.5938l117.36-117.36c3.957-3.957 6.5938-9.2305 6.5938-15.824s-2.6367-11.867-6.5938-15.824z"/>
 </g>
</svg>
