<?xml version="1.0" encoding="UTF-8"?>
<svg width="1200pt" height="1200pt" version="1.1" viewBox="0 0 1200 1200" xmlns="http://www.w3.org/2000/svg">
 <path d="m960 240c-99 0-180 80.398-180 180 0 99 81 180 180 180 99.602 0 180-81 180-180 0-99.602-80.398-180-180-180zm120 180c0 22.199-6 42.602-16.199 60.602l-164.4-164.4c18-10.199 38.398-16.199 60.602-16.199 66.602 0 120 53.398 120 120zm-240 0c0-22.199 6-43.199 16.801-61.199l164.4 164.4c-18 10.801-39 16.801-61.199 16.801-66 0-120-54-120-120zm0 384-168-90c-31.199-16.801-45-34.801-45-51 0-39 78-94.199 78-231 0-114-60.602-192-164.4-192-115.2 0-165.6 96-165.6 192.6 0 127.2 76.199 184.8 76.199 227.4 0 16.801-11.398 37.199-43.199 54l-168 90c-59.398 31.801-30 156-30 156h660s28.801-124.2-30-156z"/>
</svg>
