<?xml version="1.0" encoding="UTF-8"?>
<svg width="1200pt" height="1200pt" version="1.1" viewBox="0 0 1200 1200" xmlns="http://www.w3.org/2000/svg">
 <g fill="#fff">
  <path d="m615.56 257.77c49.988 0 90.523-40.539 90.523-90.562 0-2.9609-0.60156-5.7734-0.86328-8.6641h27.898c14.062 0 25.461-11.398 25.461-25.461s-11.398-25.461-25.461-25.461h-49.875c-16.574-18.824-40.613-30.977-67.688-30.977-50.023 0-90.523 40.539-90.523 90.523 0.003906 50.066 40.504 90.602 90.527 90.602z"/>
  <path d="m1025.1 801.82c6.3008-78.262-14.102-160.73-35.102-221.29h33.262c34.801 0 63-28.164 63-62.961v-30.188c0-34.801-28.199-63-63-63h-79.797c-17.961 0-34.051 7.6133-45.562 19.688h-172.61l-89.324-74.961c-6.6367-33.602-32.324-61.875-67.949-69.863-48.039-10.762-95.773 19.461-106.57 67.539l-47.102 209.96c-6.1133 27.301 1.3125 54.227 17.438 74.625h-124.57c-28.988 0-52.5 23.477-52.5 52.5 0 20.625 12 38.289 29.324 46.875-95.289 58.238-134.29 220.8-134.29 220.8h58.199c5.5117 84.488 75.336 151.73 161.21 151.73 85.836 0 155.59-67.238 161.18-151.73h303.98c5.5117 84.488 75.336 151.73 161.21 151.73 89.477 0 162.23-72.75 162.23-162.23 0-79.312-57.297-145.28-132.64-159.23zm-655.95 226.99c-33.789 0-61.648-24.898-66.711-57.227h133.43c-5.1406 32.328-32.965 57.227-66.715 57.227zm179.48-146.48c-42.039-42.039-46.613-95.625-45.074-126.71 25.461-3.6367 45.074-25.312 45.074-51.711 0-0.71094-0.1875-1.3125-0.22656-1.9883l68.438 26.699v153.75h-68.211zm194.17 0v-196.8c0-25.949-15.898-49.238-40.051-58.688l-107.32-41.852 23.926-106.57 58.461 49.051c8.5508 7.1641 19.273 11.062 30.375 11.062h163.99c-11.926 139.39-82.352 343.76-82.352 343.76l-47.023 0.003906zm252.71 146.48c-37.387 0-67.801-30.414-67.801-67.762 0-37.387 30.414-67.801 67.801-67.801 37.352 0 67.762 30.414 67.762 67.801-0.039062 37.387-30.414 67.762-67.762 67.762z"/>
  <path d="m384.94 590.62v-281.1c0-19.086-15.449-34.539-34.539-34.539l-273.64 0.003906c-19.086 0-34.539 15.449-34.539 34.539v281.06c0 19.086 15.449 34.539 34.539 34.539h273.64c19.09 0.035156 34.539-15.453 34.539-34.504zm-193.54-159.23c-1.2383 0.67578-2.3633 1.5742-3.5625 2.4375-3.8984 2.6641-5.7383 6.1133-5.1367 10.801 1.125 8.25 10.5 88.312 8.5859 115.8-1.3867 19.461-15.039 23.023-21.301 23.102-6.2617-0.039062-19.914-3.6367-21.301-23.102-1.9492-27.449 7.4258-107.55 8.5859-115.8 0.63672-4.6875-1.2383-8.1367-5.1367-10.801-1.1641-0.82422-2.3242-1.7617-3.5625-2.4375-17.512-8.9609-23.852-14.023-22.613-32.625 1.4258-20.812 2.6641-50.477 4.4258-70.988 0.86719-9.8242 10.055-10.684 14.816-11.137v13.539c0 14.773 0.039062 29.551-0.039063 44.324 0 4.8008 1.7266 5.7734 7.1641 5.625 5.2891-0.074219 7.2383-0.82422 7.1992-5.7383-0.039063-16.949 0-46.426 0-51.488 0-5.2109 7.6133-6.2266 10.426-6.2266s10.426 1.0117 10.426 6.2266c0 5.0625 0.074219 34.539 0 51.488-0.039062 4.9141 1.9492 5.6641 7.1641 5.7383 5.4766 0.14844 7.1992-0.78906 7.1992-5.625 0-14.773 0.035157-29.551 0.035157-44.324v-13.539c4.7617 0.44922 13.914 1.3125 14.812 11.137 1.7617 20.512 3 50.137 4.3867 70.988 1.2773 18.602-5.0586 23.664-22.574 32.625zm109.69 129.86c-1.3516 18.75-14.512 22.199-20.512 22.273-6.0391-0.039062-19.238-3.5234-20.551-22.273-1.4258-20.398 3.6367-70.988 6.4883-96.711-37.727-106.39-3.375-135.34 8.7734-144.75 8.8125-6.8242 17.512-1.7266 17.512 7.3867v122.55c0.003906 0 10.164 85.086 8.2891 111.52z"/>
 </g>
</svg>
