<?xml version="1.0" encoding="UTF-8"?>
<svg width="1200pt" height="1200pt" version="1.1" viewBox="0 0 1200 1200" xmlns="http://www.w3.org/2000/svg">
 <g fill="#fff">
  <path d="m515.45 465.82c-7.4531-5.0898-15.816-8-25.09-8.9102-50.363-4.7266-106.91-4.3633-173.09 1.2734-6.3633 0.54687-12.184 2-17.637 4.5469-17.273 7.2734-78 35.637-134.73 94.363-7.0898 7.2734-9.0898 18.184-5.0898 27.637 4 9.2734 13.09 15.273 23.273 15.273h420.91c10.184 0 19.273-6 23.273-15.273 4-9.2734 2.1836-20-4.9102-27.273-34.184-36.363-69.277-66.363-106.91-91.637zm-201.45 29.457c2.5469-1.0898 4.3633-1.4531 6.1836-1.6367 14.727-1.2734 28.727-2.1836 42.547-2.9102v73.637h-154.18c46.18-42.18 91.09-63.09 105.45-69.09zm84.363 69.09v-74.727c31.816-0.54688 61.453 0.18359 88.727 2.7266 3.0898 0.36328 5.8164 1.2734 8.5469 3.0898 29.273 19.637 56.91 42.363 84 68.91z"/>
  <path d="m512.18 630.91h-53.09c-9.8164 0-17.816 8-17.816 17.816 0 9.8164 8 17.816 17.816 17.816h53.09c9.8164 0 17.816-8 17.816-17.816 0-9.8164-7.8164-17.816-17.816-17.816z"/>
  <path d="m309.27 630.91h-52.91c-9.8164 0-17.816 8-17.816 17.816 0 9.8164 8 17.816 17.816 17.816h53.09c9.8164 0 17.816-8 17.816-17.816-0.17969-9.8164-8.1797-17.816-17.996-17.816z"/>
  <path d="m1164 238.73h-175.64c-9.8164 0-17.816 8-17.816 17.816v371.27c-6.9102-7.6367-14.727-13.816-23.273-18-79.273-38-214.91-55.816-249.82-60-45.273-49.816-91.637-90.184-141.45-123.64-14.363-9.8164-31.09-15.637-48.184-17.273-58.91-5.6367-125.82-5.2734-204.18 1.2734-11.637 0.91016-23.09 3.6367-33.09 8.3633-30.727 12.91-108.91 51.273-179.82 130.36l-16.004 0.003906c-31.09 0-56.543 25.453-56.543 56.543v165.09c0 30.547 24.91 55.453 55.637 55.453h61.453c8.5469 49.273 51.637 86.727 103.45 86.727 51.637 0 94.547-37.637 103.09-86.727h340.73c8.5469 49.273 51.637 86.727 103.45 86.727 51.637 0 94.547-37.637 103.09-86.727h43.273c14 0 27.09-4.3633 38.184-12v129.64c0 9.8164 8 17.816 17.816 17.816h175.64c9.8164 0 17.816-8 17.816-17.816l0.003906-687.27c0-9.8164-8-17.637-17.816-17.637zm-200 450.18c-16.184-1.2734-28.91-14.727-28.91-31.273v-14c12.727 8.1797 22.727 25.637 28.91 45.273zm-910.18-30h6.1836c5.8164 0 10.547 4.7266 10.547 10.547 0 2.9102-1.0898 5.4531-3.0898 7.4531-2.0039 2-4.7305 3.0898-7.6406 3.0898h-6zm184.91 218.36c-38.363 0-69.637-31.09-69.637-69.09s31.273-69.09 69.637-69.09c38 0 68.91 30.91 69.09 68.91v0.36328 0.18359c-0.17969 37.812-31.09 68.723-69.09 68.723zm547.46 0c-38.184 0-69.453-30.91-69.637-68.727v-0.18359-0.18359c0.18359-38 31.273-68.91 69.637-68.91 38.184 0 69.09 30.91 69.09 69.09-0.18359 37.824-31.09 68.914-69.09 68.914zm180.91-122.18-4.5469 13.637c-4.5469 12.91-16.547 21.637-30.184 21.637h-43.27c-8.3633-49.273-51.453-86.91-103.09-86.91-52 0-95.09 37.637-103.45 86.91h-340.73c-8.3633-49.273-51.453-86.91-103.09-86.91-52 0-95.09 37.637-103.45 86.91h-61.457c-11.09 0-20.184-8.9102-20.184-20v-54.91h6.1836c12.363 0 24-4.7266 32.727-13.453 8.7266-8.7266 13.453-20.363 13.453-32.727 0-25.453-20.727-46-46.184-46h-5.9961v-17.82c0-11.453 9.4531-20.91 20.91-20.91h23.816c5.0898 0 10-2.1836 13.453-6.1836 67.637-77.637 142.91-114.73 172.73-127.27 6.7266-2.9102 14.184-4.9102 21.816-5.4531 76.547-6.3633 141.27-6.7266 198.18-1.2734 11.09 0.91016 22 4.9102 31.453 11.273 49.09 32.91 94.547 73.09 139.27 122.91 2.9102 3.2734 7.0898 5.2734 11.453 5.8164 14.547 1.6367 129.82 14.727 212.55 44.184v29.09c0 36.91 30 67.09 67.09 67.09h3.8164c0.55469 11.277-0.35547 22.004-3.2656 30.367zm179.09 170.73h-140.18v-651.63h140.18z"/>
  <path d="m775.64 515.09c3.4531 5.0898 9.0898 7.8164 14.727 7.8164 3.4531 0 6.9102-0.91016 10-3.0898 8.1836-5.4531 10.184-16.547 4.7266-24.727l-23.09-34 27.816 4.9102c5.8164 1.0898 11.453-0.72656 15.637-4.9102 4.1836-4 6-9.8164 5.0898-15.637l-12.727-74.91 47.273 51.273c3.4531 3.6367 8.1836 5.8164 13.09 5.8164 4.9102 0 9.6367-2 13.09-5.8164l18.363-19.816v41.637c0 9.8164 8 17.816 17.816 17.816 9.8164 0 17.816-8 17.816-17.816v-87.273c0-7.2734-4.5469-14-11.273-16.547-6.7266-2.5469-14.547-0.91016-19.637 4.5469l-36.172 39.273-74.727-81.09c-5.2734-5.8164-13.816-7.2734-20.91-4-7.0898 3.4531-11.09 11.09-9.6367 18.91l18.547 109.09-44.363-7.8164c-7.0898-1.2734-14.184 1.8164-18 7.8164s-3.8164 13.816 0.18359 19.637z"/>
 </g>
</svg>
