<?xml version="1.0" encoding="UTF-8"?>
<svg width="1200pt" height="1200pt" version="1.1" viewBox="0 0 1200 1200" xmlns="http://www.w3.org/2000/svg">
 <path d="m1187.4 497.84c-7.0039-21.57-25.441-37.438-47.809-41.164l-331.02-55.07-208.59-401.6-208.59 401.6-331.02 55.074c-22.367 3.7266-40.809 19.594-47.809 41.164-7.0117 21.57-1.4219 45.242 14.484 61.402l235.45 239.12-49.926 331.83c-3.3711 22.43 6.0273 44.867 24.375 58.199s42.605 15.344 62.867 5.1914l300.16-150.03 300.16 150.03c8.582 4.293 17.887 6.4062 27.148 6.4062 12.613 0 25.148-3.9141 35.719-11.598 18.348-13.336 27.746-35.773 24.375-58.199l-49.922-331.83 235.45-239.12c15.91-16.164 21.5-39.836 14.488-61.406zm-357.82 236.9c-13.406 13.617-19.625 32.758-16.789 51.668l37.027 246.17-222.67-111.3c-17.082-8.5391-37.238-8.5391-54.32 0l-222.68 111.3 37.027-246.17c2.8359-18.91-3.3789-38.055-16.789-51.668l-174.67-177.39 245.57-40.848c19.594-3.2656 35.238-15.668 43.758-32.035l0.1875 0.10547 114.74-220.93 114.74 220.93 0.1875-0.10547c8.5195 16.371 24.164 28.77 43.758 32.035l245.57 40.848z" fill="#fff"/>
</svg>
