<?xml version="1.0" encoding="UTF-8"?>
<svg width="1200pt" height="1200pt" version="1.1" viewBox="0 0 1200 1200" xmlns="http://www.w3.org/2000/svg">
 <path d="m600 949.2c139.2 0 252-112.8 252-252s-112.8-252-252-252-252 112.8-252 252 112.8 252 252 252zm-79.199-291.6 46.801 46.801 112.8-111.6 49.199 49.199-112.8 111.6-49.199 49.199-96-96zm505.2-590.4h-852c-81.602 0-147.6 67.199-147.6 148.8v771.6c0 80.398 64.801 145.2 145.2 145.2h855.6c80.398 0 145.2-64.801 145.2-145.2v-771.6c1.2031-81.602-64.797-148.8-146.4-148.8zm-562.8 97.199c26.398 0 46.801 21.602 46.801 46.801 0 26.398-21.602 46.801-46.801 46.801-26.398 0-46.801-21.602-46.801-46.801 0-26.398 20.402-46.801 46.801-46.801zm-136.8 0c22.801 0 42 15.602 45.602 37.199 1.1992 3.6016 1.1992 6 1.1992 9.6016 0 3.6016 0 6-1.1992 9.6016-4.8008 21.602-22.801 37.199-45.602 37.199-26.398 0-46.801-21.602-46.801-46.801-1.1992-26.398 20.402-46.801 46.801-46.801zm-138 0c26.398 0 46.801 21.602 46.801 46.801 0 26.398-21.602 46.801-46.801 46.801-25.199 0-46.801-21.602-46.801-46.801 0.003906-26.398 20.402-46.801 46.801-46.801zm889.2 805.2c0 37.199-30 67.199-67.199 67.199h-820.8c-37.199 0-67.199-30-67.199-67.199l-0.003906-621.6h955.2z" fill="#fff"/>
</svg>
