<?xml version="1.0" encoding="UTF-8"?>
<svg width="1200pt" height="1200pt" version="1.1" viewBox="0 0 1200 1200" xmlns="http://www.w3.org/2000/svg">
 <path d="m806.16 644.88-45-44.879 52.68-52.68c44.148 11.523 90.52 11.496 134.65-0.085937 44.133-11.578 84.543-34.32 117.35-66.035 87-87 102-201.96 40.078-307.32h0.003906c-5.6328-9.5859-15.383-16.035-26.41-17.465-11.027-1.4336-22.098 2.3125-29.992 10.145l-96 94.922c-17.781-5.3398-31.676-19.281-36.961-37.082l95.281-95.281v0.003906c8.0234-8.0664 11.762-19.449 10.082-30.699-1.6758-11.254-8.5742-21.051-18.602-26.422-98.398-54-216-35.16-298.8 48-75.719 75.602-97.801 180-60 273.6l-44.52 45.117-52.68-52.68c11.492-44.141 11.457-90.492-0.097656-134.62-11.555-44.125-34.25-84.543-65.902-117.38-87.121-86.039-201.96-101.52-307.44-39.598-9.5859 5.6289-16.035 15.379-17.465 26.406-1.4336 11.027 2.3125 22.098 10.145 29.992l94.922 96c-5.2539 17.887-19.211 31.891-37.082 37.199l-96-96c-8.0586-7.7305-19.25-11.281-30.293-9.6133s-20.688 8.3672-26.105 18.133c-54 98.398-35.16 216 48 299.04 76.922 76.801 180 98.52 273.72 60l45.121 44.402-52.801 52.801c-44.125-11.613-90.496-11.652-134.64-0.11328-44.141 11.539-84.562 34.27-117.36 65.992-86.758 86.879-102 201.72-40.199 306.84 5.6328 9.5898 15.379 16.035 26.406 17.469 11.031 1.4297 22.102-2.3164 29.992-10.148l96-94.922v0.003906c18.043 5.332 32.172 19.414 37.562 37.438l-95.402 95.402c-8.0898 8.0312-11.898 19.418-10.266 30.703 1.6328 11.281 8.5117 21.125 18.547 26.535 35.832 19.902 76.129 30.391 117.12 30.48 33.965-0.42969 67.512-7.582 98.695-21.055 31.184-13.469 59.391-32.988 82.984-57.426 75.719-75.602 97.801-180 60-273.6l44.52-45.117 52.68 52.68c-11.551 44.137-11.547 90.504 0.011718 134.64 11.559 44.133 34.285 84.551 65.988 117.36 22.715 24.051 50.012 43.312 80.289 56.648 30.273 13.336 62.914 20.473 95.992 20.992 46.137-0.58984 91.27-13.559 130.68-37.562 9.5898-5.6328 16.035-15.379 17.469-26.406 1.4297-11.027-2.3164-22.098-10.148-29.992l-94.922-96c5.3477-18.008 19.434-32.094 37.441-37.441l95.398 95.398v0.003906c8.0156 8.0508 19.359 11.848 30.605 10.238 11.246-1.6055 21.074-8.4258 26.516-18.398 54-98.398 35.039-216-48-299.04-77.039-76.801-180-98.523-273.84-59.523zm-121.08-70.559-198.84 198.84c-5.543 5.4961-9.1523 12.648-10.277 20.379-1.125 7.7266 0.29297 15.609 4.0391 22.461 38.52 71.16 24.961 152.88-36 213.12-48 48-108 66.48-166.08 53.762l70.078-69.121c7.1797-7.1523 11.016-17 10.559-27.121v-1.1992c-1.5859-32.109-15.211-62.438-38.164-84.945-22.953-22.508-53.543-35.539-85.676-36.496-9.8711-0.37109-19.449 3.418-26.398 10.441l-72 71.039c-19.32-62.281-2.5195-124.56 48.961-175.92 57.48-57.719 141.24-62.762 198.72-42.121v0.003906c6.4297 2.3203 13.387 2.7656 20.062 1.2773 6.6719-1.4883 12.781-4.8438 17.617-9.6797l292.08-292.2c5.543-5.4961 9.1523-12.648 10.277-20.379 1.125-7.7266-0.29297-15.609-4.0391-22.461-38.52-71.281-24.961-152.88 36-213.12 48-48 108-66.48 166.08-53.762l-70.078 69.121c-7.125 7.5703-10.891 17.695-10.441 28.082 1.3242 32.113 14.781 62.531 37.652 85.117 22.875 22.582 53.461 35.648 85.59 36.562 9.875 0.38672 19.457-3.4023 26.398-10.441l72-71.16c19.441 62.52 2.7617 124.92-48 176.16-26.023 24.812-58.445 41.887-93.633 49.305-35.184 7.418-71.738 4.8906-105.57-7.3047-6.4141-2.2969-13.348-2.7266-19.996-1.2383-6.6484 1.4844-12.738 4.8281-17.562 9.6406z" fill="#fff"/>
</svg>
