<?xml version="1.0" encoding="UTF-8"?>
<svg width="1200pt" height="1200pt" version="1.1" viewBox="0 0 1200 1200" xmlns="http://www.w3.org/2000/svg">
 <g fill="#fff">
  <path d="m900 18.184h-600c-60 0-107.27 47.273-107.27 107.27v107.27h812.73v-107.28c0-60-47.27-107.27-105.45-107.27zm-390.91 125.45h-5.4531c-9.0898 0-18.184-7.2734-18.184-18.184s9.0898-18.184 18.184-18.184l5.4531 0.003907c10.91 0 18.184 7.2734 18.184 18.184 0 9.0898-9.0898 18.18-18.184 18.18zm189.09 0h-125.45c-10.91 0-18.184-7.2734-18.184-18.184s7.2734-18.184 18.184-18.184h125.45c10.91 0 18.184 7.2734 18.184 18.184-0.003907 9.0938-9.0938 18.184-18.184 18.184z"/>
  <path d="m749.09 681.82 7.2734-63.637h-1.8164c-56.363-7.2734-103.64-54.547-110.91-112.73v-1.8164h-238.18l25.453 178.18z"/>
  <path d="m774.55 583.64c54.547 0 98.184-43.637 98.184-98.184 0-60-54.547-109.09-116.36-96.363-36.363 7.2734-65.453 34.547-74.547 70.91 0 1.8164-1.8164 3.6367-1.8164 5.4531 0 3.6367 0 7.2734-1.8164 10.91 0 3.6367-1.8164 5.4531-1.8164 9.0898-0.007813 54.547 43.629 98.184 98.176 98.184zm-49.094-121.82c-7.2734-7.2734-7.2734-18.184 0-25.453 7.2734-7.2734 18.184-7.2734 25.453 0l23.637 23.637 23.637-23.637c7.2734-7.2734 18.184-7.2734 25.453 0 7.2734 7.2734 7.2734 18.184 0 25.453l-23.633 23.637 23.637 23.637c7.2734 7.2734 7.2734 18.184 0 25.453-3.6367 3.6367-7.2734 5.4531-12.727 5.4531s-9.0898-1.8164-12.727-5.4531l-23.637-23.637-23.637 23.637c-3.6367 3.6367-9.0898 5.4531-12.727 5.4531-5.4531 0-9.0898-1.8164-12.727-5.4531-7.2734-7.2734-7.2734-18.184 0-25.453l23.637-23.637z"/>
  <path d="m194.55 932.73h812.73v-665.45h-812.73zm116.36-516.36h43.637c12.727 0 25.453 7.2734 30.91 20l12.727 29.09h243.64c9.0898-65.453 65.453-114.55 132.73-114.55 74.547 0 134.55 60 134.55 134.55v14.547c-5.4531 56.363-47.273 103.64-101.82 116.36-1.8164 0-1.8164 0-10.91 1.8164h-1.8164l-7.2734 69.09c-1.8164 18.184-16.363 30.91-34.547 30.91l-327.28 0.003906-20 32.727c-3.6367 5.4531-1.8164 9.0898 0 10.91 0 1.8164 3.6367 5.4531 9.0898 5.4531h370.91c9.0898 0 18.184 7.2734 18.184 18.184 0 10.91-9.0898 18.184-18.184 18.184h-63.637v27.273c0 10.91-7.2734 18.184-18.184 18.184-10.91 0-18.184-7.2734-18.184-18.184v-27.273h-200v27.273c0 10.91-9.0898 18.184-18.184 18.184-10.91 0-18.184-7.2734-18.184-18.184v-27.273h-34.547c-18.184 0-32.727-9.0898-41.816-23.637s-7.2734-34.547 1.8164-49.09l21.816-34.547-29.078-205.46-16.363-36.363h-41.816c-10.91 0-18.184-7.2734-18.184-18.184 0-10.91 9.0898-20 20-20z"/>
  <path d="m194.55 1074.5c0 58.184 47.273 107.27 107.27 107.27h598.18c58.184 0 107.27-47.273 107.27-107.27v-105.45l-812.73-0.003906zm405.45-67.273c27.273 0 50.91 21.816 50.91 50.91 0 27.273-21.816 49.09-50.91 49.09-27.273 0-50.91-21.816-50.91-49.09 0-29.094 23.637-50.91 50.91-50.91z"/>
 </g>
</svg>
