<?xml version="1.0" encoding="UTF-8"?>
<svg width="1200pt" height="1200pt" version="1.1" viewBox="0 0 1200 1200" xmlns="http://www.w3.org/2000/svg">
 <path d="m337.5 440.62c-93.199 0-168.75-75.551-168.75-168.75s75.551-168.75 168.75-168.75 168.75 75.551 168.75 168.75-75.551 168.75-168.75 168.75zm0-75c51.777 0 93.75-41.973 93.75-93.75s-41.973-93.75-93.75-93.75-93.75 41.973-93.75 93.75 41.973 93.75 93.75 93.75zm-61.555 131.62c6.4648-0.92969 13.258-0.17969 19.727 2.5117 19.117 7.9688 28.16 29.922 20.195 49.039l-88.352 212.04 126.81 380.43c6.5508 19.648-4.0664 40.887-23.715 47.434-19.648 6.5508-40.887-4.0664-47.434-23.715l-92.918-278.75-79.199 277.2c-5.6914 19.914-26.445 31.445-46.359 25.758-19.914-5.6914-31.445-26.445-25.758-46.359l112.5-393.75c0.59375-2.0742 1.3242-4.0312 2.1719-5.8711l68.168-163.6-69.57 8.6953-84.195 117.88c-12.039 16.852-35.461 20.758-52.312 8.7188s-20.758-35.461-8.7188-52.312l93.75-131.25c6.0898-8.5234 15.469-14.113 25.863-15.414zm624.05-131.62c-93.199 0-168.75-75.551-168.75-168.75s75.551-168.75 168.75-168.75 168.75 75.551 168.75 168.75-75.551 168.75-168.75 168.75zm0-75c51.777 0 93.75-41.973 93.75-93.75s-41.973-93.75-93.75-93.75-93.75 41.973-93.75 93.75 41.973 93.75 93.75 93.75zm51.109 190.87 78.352 266.4c0.45703 1.4414 0.83203 2.9297 1.125 4.4688l75 393.75c3.8789 20.344-9.4727 39.977-29.82 43.852-20.344 3.8789-39.977-9.4727-43.852-29.82l-63.531-333.53-109.58 85.227-53.387 249.14c-4.3398 20.254-24.273 33.152-44.523 28.812-20.254-4.3398-33.152-24.273-28.812-44.523l56.25-262.5c1.8477-8.6289 6.6797-16.328 13.645-21.746l148.59-115.57-77.445-263.32c-35.004 8.0742-66.594 27.461-95.535 58.891-10.895 11.832-28.121 15.398-42.816 8.8672l-168.75-75c-18.926-8.4141-27.449-30.574-19.039-49.5 8.4141-18.926 30.574-27.449 49.5-19.039l145.25 64.559c45.336-41.574 97.746-64.484 156.18-67.73 65.082-3.6172 134.7 17.27 208.8 61.488 7.4141 4.4258 13.074 11.273 16.023 19.387l75 206.25c7.0781 19.465-2.9648 40.98-22.426 48.059-19.465 7.0781-40.98-2.9648-48.059-22.426l-70.352-193.47c-37.844-21.34-73.105-34.91-105.8-40.98zm-441.71-463.77c5.7461-8.6133 17.387-10.941 26.004-5.1992 8.6133 5.7461 10.941 17.387 5.1992 26.004l-37.5 56.25c-5.7461 8.6133-17.387 10.941-26.004 5.1992-8.6133-5.7461-10.941-17.387-5.1992-26.004zm151.4 254.71c10.047 2.5117 16.156 12.691 13.645 22.738-2.5117 10.047-12.691 16.156-22.738 13.645l-75-18.75c-10.047-2.5117-16.156-12.691-13.645-22.738 2.5117-10.047 12.691-16.156 22.738-13.645zm-12.934-167.33c9.2617-4.6328 20.527-0.87891 25.156 8.3828 4.6328 9.2617 0.87891 20.527-8.3828 25.156l-75 37.5c-9.2617 4.6328-20.527 0.87891-25.156-8.3828-4.6328-9.2617-0.87891-20.527 8.3828-25.156z" fill="#fff"/>
</svg>
