<?xml version="1.0" encoding="UTF-8"?>
<svg width="1200pt" height="1200pt" version="1.1" viewBox="0 0 1200 1200" xmlns="http://www.w3.org/2000/svg">
 <path d="m864.68 90.668c-2.7227 0-5.5586 0.023437-8.2773 0.058593-118.8 1.5859-270.51 35.961-402.09 167.54-1.6992 1.6992-3.4023 3.4023-4.9883 5.1016l-96.176-55.816h-0.007813c-4.3398-2.5352-9.25-3.9414-14.277-4.082-8.2148-0.22656-16.164 2.9297-21.988 8.7305l-218.07 218.07c-6.5859 6.582-9.7422 15.852-8.543 25.086s6.6172 17.387 14.668 22.07l161.16 93.594c-6.2383 23.836-10.547 47.426-12.93 70.547v-0.003907c-0.93359 8.9922 2.2305 17.922 8.6211 24.316l271.73 271.73c6.3906 6.3867 15.324 9.5547 24.312 8.6172 23.121-2.3828 46.711-6.6914 70.535-12.93l93.602 161.17 0.003906 0.003906c4.6797 8.0469 12.836 13.465 22.07 14.664 9.2305 1.1992 18.5-1.957 25.082-8.543l218.07-218.09c4.6836-4.6719 7.6875-10.762 8.5469-17.32 0.86328-6.5625-0.46875-13.219-3.7812-18.945l-55.816-96.176c1.6992-1.6992 3.4023-3.2891 5.1016-4.9883 266.58-266.58 137.57-607.21 137.57-607.21v-0.003906c-3.0977-8.0547-9.5156-14.387-17.613-17.375 0 0-81.934-29.906-196.43-29.883zm1.1328 58.777c76.648 0 136.64 15.434 161.92 23.102 19.086 60.172 83.68 318.02-128.46 530.16-5.5586 5.5586-11.113 11-16.785 16.273h0.003907c-1.5352 0.96484-2.9766 2.0664-4.3125 3.2891-54.605 50.633-113.28 90.43-171.32 118.27l-347.43-347.45c27.828-58.039 67.621-116.71 118.26-171.32 1.2266-1.332 2.3242-2.7773 3.2891-4.3086 5.332-5.6719 10.773-11.227 16.309-16.816 119.05-119.05 254.95-150.01 361.09-151.21 2.4961-0.023438 4.9883-0.035156 7.4844-0.035156zm-33.738 47.652c-43.82 0-87.625 16.637-120.89 49.887-66.512 66.523-66.512 175.28 0 241.79 66.512 66.512 175.27 66.512 241.78 0 66.523-66.512 66.523-175.27 0-241.79-33.25-33.25-77.07-49.887-120.89-49.887zm0 59.629c28.34 0 56.68 10.887 78.465 32.695 43.594 43.582 43.594 113.34 0 156.93-43.582 43.582-113.34 43.582-156.93 0-43.582-43.594-43.582-113.35 0-156.93 21.797-21.797 50.137-32.695 78.465-32.695zm-488.6 14.254 64.922 37.684c-55.082 65.016-96.562 134.75-123.01 203.95l-116.1-67.43zm280.23 208.97c-24.758 0-49.512 9.2969-68.234 28.066-37.422 37.434-37.422 99.035 0 136.47 37.434 37.422 99.035 37.422 136.47 0 37.422-37.434 37.422-99.035 0-136.47h-0.011719c-18.711-18.711-43.469-28.066-68.223-28.066zm0 59.617c9.2969 0 18.555 3.6289 25.801 10.887 14.504 14.504 14.504 37.117 0 51.609-14.492 14.504-37.105 14.504-51.609 0-14.504-14.492-14.504-37.105 0-51.609 7.2578-7.2578 16.535-10.887 25.812-10.887zm-288.95 13.777 311.86 311.86c-27.578 9.4141-54.605 15.969-80.539 19.652l-250.97-250.97c3.7422-25.934 10.32-52.961 19.652-80.539zm-92.91 174.26c-7.793 0.22656-15.191 3.4805-20.629 9.0703l-115.48 115.48h0.003906c-5.7656 5.5938-9.0469 13.27-9.1055 21.305-0.0625 8.0352 3.1055 15.758 8.7852 21.438 5.6797 5.6797 13.402 8.8477 21.438 8.7852 8.0352-0.058594 15.711-3.3398 21.305-9.1055l115.48-115.48v0.003906c5.8164-5.6523 9.0977-13.418 9.0938-21.527 0-8.1094-3.2852-15.875-9.1055-21.523s-13.68-8.6992-21.785-8.457zm649.45 63.961 37.672 64.922-174.19 174.19-67.43-116.1c69.199-26.445 138.93-67.93 203.95-123.01zm-549.63 35.871v-0.003906c-7.793 0.23047-15.191 3.4805-20.625 9.0703l-198.08 198.08h-0.003907c-5.7617 5.5977-9.043 13.273-9.1016 21.305-0.0625 8.0352 3.1016 15.758 8.7852 21.441 5.6797 5.6797 13.402 8.8438 21.438 8.7852 8.0352-0.058593 15.711-3.3398 21.305-9.1055l198.08-198.08c5.8125-5.6523 9.0898-13.414 9.0859-21.523-0.003906-8.1055-3.2891-15.867-9.1055-21.512-5.8164-5.6484-13.672-8.6992-21.777-8.4609zm99.816 99.816 0.003906-0.003906c-7.7969 0.23047-15.195 3.4844-20.629 9.0742l-115.48 115.48v-0.003906c-5.7656 5.5977-9.0469 13.273-9.1055 21.309-0.0625 8.0312 3.1055 15.758 8.7852 21.438 5.6836 5.6836 13.406 8.8477 21.441 8.7852 8.0352-0.058594 15.707-3.3398 21.305-9.1055l115.48-115.48h-0.003907c5.8125-5.6523 9.0898-13.414 9.0859-21.52-0.003907-8.1094-3.2891-15.867-9.1055-21.516-5.8164-5.6445-13.672-8.6992-21.773-8.4609z" fill="#fff"/>
</svg>
