<?xml version="1.0" encoding="UTF-8"?>
<svg width="1200pt" height="1200pt" version="1.1" viewBox="0 0 1200 1200" xmlns="http://www.w3.org/2000/svg">
 <g fill="#fff">
  <path d="m935.44 404.06c-1.5586-3.0938-3.9414-5.6914-6.8867-7.5117-2.9453-1.8203-6.3398-2.7891-9.8008-2.8008h-112.5c-4.9727 0-9.7422 1.9766-13.258 5.4922-3.5156 3.5156-5.4922 8.2852-5.4922 13.258v150c0 4.9727 1.9766 9.7422 5.4922 13.258 3.5156 3.5156 8.2852 5.4922 13.258 5.4922h187.5c6.5-0.019531 12.523-3.4023 15.922-8.9414 3.4023-5.5391 3.6914-12.441 0.76562-18.246zm-110.44 139.69v-112.5h82.125l56.25 112.5z"/>
  <path d="m1078.9 540.56c-9.3984-6.4297-17.008-15.141-22.125-25.312l-83.812-167.44c-1.5586-3.0938-3.9414-5.6914-6.8867-7.5117-2.9453-1.8203-6.3398-2.7891-9.8008-2.8008h-187.5v-56.25c0-4.9727-1.9766-9.7422-5.4922-13.258-3.5156-3.5156-8.2852-5.4922-13.258-5.4922h-525c-4.9727 0-9.7422 1.9766-13.258 5.4922-3.5156 3.5156-5.4922 8.2852-5.4922 13.258v56.25h-112.5c-6.6992 0-12.887 3.5742-16.238 9.375-3.3477 5.8008-3.3477 12.949 0 18.75 3.3516 5.8008 9.5391 9.375 16.238 9.375h112.5v37.5c-6.6992 0-12.887 3.5742-16.238 9.375-3.3477 5.8008-3.3477 12.949 0 18.75 3.3516 5.8008 9.5391 9.375 16.238 9.375v37.5h-18.75c-6.6992 0-12.887 3.5742-16.238 9.375-3.3477 5.8008-3.3477 12.949 0 18.75 3.3516 5.8008 9.5391 9.375 16.238 9.375h18.75v243.75c0 4.9727 1.9766 9.7422 5.4922 13.258 3.5156 3.5156 8.2852 5.4922 13.258 5.4922h78.938c-2.5547 9.1602-3.8789 18.617-3.9375 28.125 0 36.844 19.656 70.887 51.562 89.309s71.219 18.422 103.12 0 51.562-52.465 51.562-89.309c-0.058594-9.5078-1.3828-18.965-3.9375-28.125h307.88c-2.5547 9.1602-3.8789 18.617-3.9375 28.125 0 36.844 19.656 70.887 51.562 89.309s71.219 18.422 103.12 0 51.562-52.465 51.562-89.309c-0.058594-9.5078-1.3828-18.965-3.9375-28.125h97.688c4.9727 0 9.7422-1.9766 13.258-5.4922 3.5156-3.5156 5.4922-8.2852 5.4922-13.258v-142.31c0.011719-34.551-17.312-66.805-46.125-85.875zm-553.88-240.56v112.5h-75v-112.5zm-262.5 187.5h-18.75v-37.5h131.25c6.6992 0 12.887-3.5742 16.238-9.375 3.3477-5.8008 3.3477-12.949 0-18.75-3.3516-5.8008-9.5391-9.375-16.238-9.375h-131.25v-37.5h93.75c6.6992 0 12.887-3.5742 16.238-9.375 3.3477-5.8008 3.3477-12.949 0-18.75-3.3516-5.8008-9.5391-9.375-16.238-9.375h-93.75v-37.5h168.75v131.25c0 4.9727 1.9766 9.7422 5.4922 13.258 3.5156 3.5156 8.2852 5.4922 13.258 5.4922h112.5c4.9727 0 9.7422-1.9766 13.258-5.4922 3.5156-3.5156 5.4922-8.2852 5.4922-13.258v-131.25h168.75v393.75h-487.5v-168.75h18.75c6.6992 0 12.887-3.5742 16.238-9.375 3.3477-5.8008 3.3477-12.949 0-18.75-3.3516-5.8008-9.5391-9.375-16.238-9.375zm61.125 262.5h-79.875v-18.75h100.31c-7.6328 5.293-14.508 11.602-20.438 18.75zm79.5 131.25c-17.406 0-34.098-6.9141-46.402-19.223-12.309-12.305-19.223-28.996-19.223-46.402s6.9141-34.098 19.223-46.402c12.305-12.309 28.996-19.223 46.402-19.223s34.098 6.9141 46.402 19.223c12.309 12.305 19.223 28.996 19.223 46.402s-6.9141 34.098-19.223 46.402c-12.305 12.309-28.996 19.223-46.402 19.223zm328.12-131.25h-248.62c-5.9297-7.1484-12.805-13.457-20.438-18.75h269.06zm98.625 0h-61.125v-18.75h81.562c-7.6328 5.293-14.508 11.602-20.438 18.75zm79.5 131.25c-17.406 0-34.098-6.9141-46.402-19.223-12.309-12.305-19.223-28.996-19.223-46.402s6.9141-34.098 19.223-46.402c12.305-12.309 28.996-19.223 46.402-19.223s34.098 6.9141 46.402 19.223c12.309 12.305 19.223 28.996 19.223 46.402s-6.9141 34.098-19.223 46.402c-12.305 12.309-28.996 19.223-46.402 19.223zm178.12-131.25h-98.625c-5.9297-7.1484-12.805-13.457-20.438-18.75h119.06zm0-56.25h-318.75v-318.75h175.88l78.75 157.12c7.9414 16.027 19.973 29.672 34.875 39.562 18.285 12.219 29.258 32.758 29.25 54.75z"/>
  <path d="m403.12 768.75c-12.434 0-24.355 4.9375-33.145 13.73-8.793 8.7891-13.73 20.711-13.73 33.145s4.9375 24.355 13.73 33.145c8.7891 8.793 20.711 13.73 33.145 13.73s24.355-4.9375 33.145-13.73c8.793-8.7891 13.73-20.711 13.73-33.145s-4.9375-24.355-13.73-33.145c-8.7891-8.793-20.711-13.73-33.145-13.73zm0 56.25c-3.793 0-7.2109-2.2852-8.6602-5.7891-1.4531-3.5-0.64844-7.5352 2.0312-10.215 2.6797-2.6797 6.7148-3.4844 10.215-2.0312 3.5039 1.4492 5.7891 4.8672 5.7891 8.6602 0 2.4883-0.98828 4.8711-2.7461 6.6289-1.7578 1.7578-4.1406 2.7461-6.6289 2.7461z"/>
  <path d="m909.38 768.75c-12.434 0-24.355 4.9375-33.145 13.73-8.793 8.7891-13.73 20.711-13.73 33.145s4.9375 24.355 13.73 33.145c8.7891 8.793 20.711 13.73 33.145 13.73s24.355-4.9375 33.145-13.73c8.793-8.7891 13.73-20.711 13.73-33.145s-4.9375-24.355-13.73-33.145c-8.7891-8.793-20.711-13.73-33.145-13.73zm0 56.25c-3.793 0-7.2109-2.2852-8.6602-5.7891-1.4531-3.5-0.64844-7.5352 2.0312-10.215 2.6797-2.6797 6.7148-3.4844 10.215-2.0312 3.5039 1.4492 5.7891 4.8672 5.7891 8.6602 0 2.4883-0.98828 4.8711-2.7461 6.6289-1.7578 1.7578-4.1406 2.7461-6.6289 2.7461z"/>
  <path d="m262.5 600v56.25c0 4.9727 1.9766 9.7422 5.4922 13.258 3.5156 3.5156 8.2852 5.4922 13.258 5.4922h112.5c4.9727 0 9.7422-1.9766 13.258-5.4922 3.5156-3.5156 5.4922-8.2852 5.4922-13.258v-56.25c0-4.9727-1.9766-9.7422-5.4922-13.258-3.5156-3.5156-8.2852-5.4922-13.258-5.4922h-112.5c-4.9727 0-9.7422 1.9766-13.258 5.4922-3.5156 3.5156-5.4922 8.2852-5.4922 13.258zm37.5 18.75h75v18.75h-75z"/>
  <path d="m318.75 525h131.25c6.6992 0 12.887-3.5742 16.238-9.375 3.3477-5.8008 3.3477-12.949 0-18.75-3.3516-5.8008-9.5391-9.375-16.238-9.375h-131.25c-6.6992 0-12.887 3.5742-16.238 9.375-3.3477 5.8008-3.3477 12.949 0 18.75 3.3516 5.8008 9.5391 9.375 16.238 9.375z"/>
  <path d="m150 412.5h-37.5c-6.6992 0-12.887 3.5742-16.238 9.375-3.3477 5.8008-3.3477 12.949 0 18.75 3.3516 5.8008 9.5391 9.375 16.238 9.375h37.5c6.6992 0 12.887-3.5742 16.238-9.375 3.3477-5.8008 3.3477-12.949 0-18.75-3.3516-5.8008-9.5391-9.375-16.238-9.375z"/>
 </g>
</svg>
