<?xml version="1.0" encoding="UTF-8"?>
<svg width="1200pt" height="1200pt" version="1.1" viewBox="0 0 1200 1200" xmlns="http://www.w3.org/2000/svg">
 <g fill="#fff">
  <path d="m828.32 376.48h-341.77c-15.238 0-27.375 12.137-27.375 27.375s12.137 27.375 27.375 27.375h341.77c15.238 0 27.375-12.137 27.375-27.375s-12.418-27.375-27.375-27.375z"/>
  <path d="m828.32 513.08h-341.77c-15.238 0-27.375 12.137-27.375 27.375s12.137 27.375 27.375 27.375h341.77c15.238 0 27.375-12.137 27.375-27.375 0-15.242-12.418-27.375-27.375-27.375z"/>
  <path d="m828.32 736.31h-341.77c-15.238 0-27.375 12.137-27.375 27.375s12.137 27.375 27.375 27.375h341.77c15.238 0 27.375-12.137 27.375-27.375s-12.418-27.375-27.375-27.375z"/>
  <path d="m749.58 865.85h-263.31c-15.238 0-27.375 12.137-27.375 27.375 0 15.238 12.137 27.375 27.375 27.375h263.31c15.238 0 27.375-12.137 27.375-27.375 0-14.957-12.137-27.375-27.375-27.375z"/>
  <path d="m486.55 654.19h246.66c15.238 0 27.375-12.137 27.375-27.375s-12.137-27.375-27.375-27.375h-246.66c-15.238 0-27.375 12.137-27.375 27.375s12.137 27.375 27.375 27.375z"/>
  <path d="m411.48 354.47h-38.945c-13.828 0-25.117 11.289-25.117 25.117v38.945c0 13.828 11.289 25.117 25.117 25.117h38.945c13.828 0 25.117-11.289 25.117-25.117v-38.945c0-13.828-11.289-25.117-25.117-25.117zm8.75 64.062c0 4.7969-3.9492 9.0312-9.0312 9.0312h-38.664c-4.7969 0-9.0312-3.9492-9.0312-9.0312v-38.945c0-4.7969 3.9492-9.0312 9.0312-9.0312h38.945c4.7969 0 9.0312 3.9492 9.0312 9.0312v38.945z"/>
  <path d="m411.48 491.06h-38.945c-13.828 0-25.117 11.289-25.117 25.117v38.945c0 13.828 11.289 25.117 25.117 25.117h38.945c13.828 0 25.117-11.289 25.117-25.117v-38.945c0-13.828-11.289-25.117-25.117-25.117zm8.75 64.066c0 4.7969-3.9492 9.0312-9.0312 9.0312l-38.664-0.003906c-4.7969 0-9.0312-3.9492-9.0312-9.0312v-38.945c0-4.7969 3.9492-9.0312 9.0312-9.0312h38.945c4.7969 0 9.0312 3.9492 9.0312 9.0312v38.949z"/>
  <path d="m411.48 714.58h-38.945c-13.828 0-25.117 11.289-25.117 25.117v38.945c0 13.828 11.289 25.117 25.117 25.117h38.945c13.828 0 25.117-11.289 25.117-25.117v-38.945c0-13.828-11.289-25.117-25.117-25.117zm8.75 63.781c0 4.7969-3.9492 9.0312-9.0312 9.0312h-38.664c-4.7969 0-9.0312-3.9492-9.0312-9.0312v-38.945c0-4.7969 3.9492-9.0312 9.0312-9.0312h38.945c4.7969 0 9.0312 3.9492 9.0312 9.0312v38.945z"/>
  <path d="m411.48 844.4h-38.945c-13.828 0-25.117 11.289-25.117 25.117v38.945c0 13.828 11.289 25.117 25.117 25.117h38.945c13.828 0 25.117-11.289 25.117-25.117v-38.945c0-13.828-11.289-25.117-25.117-25.117zm8.75 64.062c0 4.7969-3.9492 9.0312-9.0312 9.0312h-38.664c-4.7969 0-9.0312-3.9492-9.0312-9.0312v-38.945c0-4.7969 3.9492-9.0312 9.0312-9.0312h38.945c4.7969 0 9.0312 3.9492 9.0312 9.0312v38.945z"/>
  <path d="m920.6 169.61h-191.06v-13.266c0-7.0547-5.9258-12.98-12.98-12.98h-49.672c2.5391-7.0547 4.2344-14.395 4.2344-22.297 0-35.277-28.504-63.781-63.781-63.781s-63.781 28.504-63.781 63.781c0 7.9023 1.6914 15.238 4.2344 22.297h-49.672c-7.0547 0-12.98 5.9258-12.98 12.98v13.266h-191.06c-46.848 0-84.949 38.102-84.949 84.949v790.21c0 46.848 38.102 84.949 84.949 84.949h625.96c46.848 0 84.949-38.102 84.949-84.949v-790.21c0.55859-46.848-37.543-84.949-84.391-84.949zm36.406 875.16c0 20.039-16.367 36.406-36.406 36.406h-626.25c-20.039 0-36.406-16.367-36.406-36.406v-790.21c0-20.039 16.367-36.406 36.406-36.406h191.06v12.98c0 7.0547 5.9258 12.98 12.98 12.98h218.16c7.0547 0 12.98-5.9258 12.98-12.98v-12.98h191.06c20.039 0 36.406 16.367 36.406 36.406z"/>
 </g>
</svg>
