<?xml version="1.0" encoding="UTF-8"?>
<svg width="1200pt" height="1200pt" version="1.1" viewBox="0 0 1200 1200" xmlns="http://www.w3.org/2000/svg">
 <path d="m494.57 74.609c17.039-19.125 72.73-14.023 97.703-13.914 15.41 0.082032 33.629 0.82813 44.258 13.648 12.527 15.062 9.1602 49.812 9.1602 69.152 19.445 0 54.195-3.7383 69.098 9.1328 10.176 8.7891 10.871 18.457 11.031 30.93v120.19h-320.52v-117.52c0.023437-15.41-0.24219-25.801 13.461-36.031 13.516-10.07 49.332-6.7031 66.668-6.7031 0-19.125-3.7656-54.406 9.1328-68.883zm420.89 958.31v74.785c-0.10547 8.2812-0.29297 21.422-6.8359 27.402-6.0352 5.5273-17.496 4.6484-25.215 4.6484h-512.82-104.17c-9.8008 0-34.508 1.5234-42.121-3.125-9.9102-6.0625-8.6016-18.91-8.6289-28.926v-699.79-178.95c0.054688-31.332 7.1562-32 37.395-32.051h109.51v50.75h-96.156v841.35h598.29v-333.87c0-5.582-0.32031-13.516 1.6016-18.695 4.3008-11.699 38.086-42.844 49.145-50.75v347.22zm-34.723-836.01c8.0391 0.027344 21.527-0.10547 28.02 5.1562 7.7188 6.2773 6.6758 20.512 6.7031 29.566v146.9c0 5.582 0.32031 13.516-1.6016 18.695-4.3008 11.699-38.086 42.844-49.145 50.75v-200.32h-93.484v-50.75h109.51zm-320.51 574.25c5.7422 5.7422 21.555 23.934 29.379 23.934 6.9453 0 16.641-11.219 21.367-15.918l243.05-243.05s48.078-48.078 48.078-48.078c4.8594-4.8086 14.184-15.492 21.367-15.492 6.6523 0 14.234 8.4688 18.695 12.82 0 0 39.074 40.062 39.074 40.062 2.3789 3.5781 3.8711 6.2773 2.75 10.684-1.8711 7.5312-31.945 35.523-39.156 42.734l-299.14 299.14s-37.395 37.395-37.395 37.395c-4.4609 4.3555-12.047 12.82-18.695 12.82-5.9844 0-11.992-6.3555-16.027-10.203l-29.379-29.328-74.785-74.785c-14.129-14.129-34.16-32.398-45.406-48.078l66.773-64.102s69.445 69.445 69.445 69.445zm184.3-202.99-37.395 40.062-24.039 21.312s-21.367 2.7227-21.367 2.7227h-264.43v336.54h336.54v-85.469l2.7227-18.695 21.312-24.039 40.062-37.395v229.7h-464.75v-464.75h411.33z" fill="#fff"/>
</svg>
