<?xml version="1.0" encoding="UTF-8"?>
<svg width="1200pt" height="1200pt" version="1.1" viewBox="0 0 1200 1200" xmlns="http://www.w3.org/2000/svg">
 <g fill="#fff">
  <path d="m528 567.6c-1.1992-20.398-8.3984-39.602-22.801-55.199l-120-139.2c-6-6-13.199-9.6016-21.602-10.801-8.3984 0-16.801 2.3984-22.801 8.3984-10.801 9.6016-13.199 25.199-7.1992 37.199l3.6016 7.1992c18 36 39.602 70.801 64.801 103.2l21.602 27.602c3.6016 4.8008 4.8008 9.6016 3.6016 15.602s-3.6016 10.801-8.3984 13.199c-4.8008 3.6016-9.6016 4.8008-15.602 3.6016-6-1.1992-10.801-3.6016-13.199-8.3984l-21.602-27.602c-25.199-34.801-49.199-70.801-68.398-109.2l-3.6016-7.1992c-15.602-30-8.3984-66 16.801-87.602 2.3984-1.1992 3.6016-3.6016 6-4.8008l-44.398-111.6c-4.8008-13.199-18-21.602-31.199-22.801-10.801-1.1992-20.398 2.3984-27.602 9.6016-7.1992 7.1992-12 16.801-12 27.602l4.8008 288c0 26.398 10.801 52.801 30 72l109.2 111.6h183.6z"/>
  <path d="m984 210c-7.1992-7.1992-18-10.801-27.602-9.6016-13.199 1.1992-26.398 10.801-31.199 22.801l-44.398 111.6c2.3984 1.1992 3.6016 2.3984 6 4.8008 25.199 21.602 31.199 57.602 16.801 87.602l-3.6016 7.1953c-19.199 38.398-42 75.602-68.398 109.2l-21.602 27.602c-3.6016 4.8008-8.3984 7.1992-13.199 8.3984-6 1.1992-10.801 0-15.602-3.6016-4.8008-3.6016-7.1992-8.3984-8.3984-13.199-1.1992-6 0-10.801 3.6016-15.602l21.602-27.602c24-32.398 45.602-67.199 64.801-103.2l3.6016-7.1992c6-13.199 3.6016-27.602-7.1992-37.199-6-6-14.398-8.3984-22.801-8.3984-8.3984 1.1992-15.602 4.8008-21.602 10.801l-121.2 138c-13.199 15.602-21.602 34.801-21.602 55.199l-3.6016 140.4h183.6l109.2-110.4c19.199-19.199 30-44.398 30-72l4.8008-288c0-10.801-3.6016-20.402-12-27.602z"/>
  <path d="m668.4 832.8c0 9.6016 8.3984 18 18 18h52.801v61.199c-25.199 7.1992-44.398 31.199-44.398 58.801v24c0 14.398 4.8008 27.602 14.398 38.398l-43.199 36c-10.801-19.199-31.199-31.199-54-31.199h-24c-22.801 0-43.199 13.199-54 31.199l-43.199-34.801c8.3984-10.801 14.398-24 14.398-38.398v-24c0-27.602-19.199-51.602-44.398-58.801v-61.199h52.801c9.6016 0 18-8.3984 18-18v-85.199h-181.2v85.199c0 9.6016 8.3984 18 18 18h49.199v61.199c-25.199 7.1992-44.398 31.199-44.398 58.801v24c0 34.801 27.602 62.398 62.398 62.398h8.3984c2.3984 0 4.8008 0 7.1992-1.1992l76.801 63.602c6 28.801 31.199 50.398 61.199 50.398h24c30 0 55.199-21.602 61.199-50.398l76.801-63.602c2.3984 0 4.8008 1.1992 7.1992 1.1992h8.3984c34.801 0 62.398-27.602 62.398-62.398v-24c0-27.602-19.199-51.602-44.398-58.801v-61.199h49.199c9.6016 0 18-8.3984 18-18v-85.199h-183.59zm-252 162v-24c0-9.6016 8.3984-18 18-18h8.3984c9.6016 0 18 8.3984 18 18v24c0 9.6016-8.3984 18-18 18h-8.3984c-9.5977 0-18-8.4023-18-18zm213.6 112.8c0 9.6016-8.3984 18-18 18h-24c-9.6016 0-18-8.3984-18-18v-8.3984c0-9.6016 8.3984-18 18-18h24c9.6016 0 18 8.3984 18 18zm153.6-112.8c0 9.6016-8.3984 18-18 18h-8.3984c-9.6016 0-18-8.3984-18-18v-24c0-9.6016 8.3984-18 18-18h8.3984c9.6016 0 18 8.3984 18 18z"/>
  <path d="m487.2 370.8h225.6c32.398 0 58.801-26.398 58.801-58.801v-223.2c0-32.398-26.398-58.801-58.801-58.801h-225.6c-32.398 0-58.801 26.398-58.801 58.801v223.2c0 32.398 26.402 58.801 58.801 58.801zm112.8-256.8c26.398 0 46.801 21.602 46.801 46.801 0 18-10.801 33.602-25.199 42l18 69.602c1.1992 3.6016 0 7.1992-2.3984 9.6016-2.3984 2.3984-6 4.8008-9.6016 4.8008h-57.602c-3.6016 0-7.1992-1.1992-9.6016-4.8008-2.3984-2.3984-2.3984-6-2.3984-9.6016l18-69.602c-15.602-7.1992-25.199-24-25.199-42 2.3984-25.199 22.801-46.801 49.199-46.801z"/>
 </g>
</svg>
