<?xml version="1.0" encoding="UTF-8"?>
<svg width="1200pt" height="1200pt" version="1.1" viewBox="0 0 1200 1200" xmlns="http://www.w3.org/2000/svg">
 <g fill="#fff">
  <path d="m600 120c-264.6 0-480 215.4-480 480s215.4 480 480 480 480-215.4 480-480-215.4-480-480-480zm259.8 330c3.8008 6.3984 10.398 10 17.398 10 3.3984 0 6.8008-0.80078 10-2.6016l33.801-19.602c22 43.199 35.199 91.199 38 142.2l-39 0.003906c-11 0-20 9-20 20s9 20 20 20h39c-2.8008 51-16.199 99-38 142.2l-33.801-19.602c-9.6016-5.6016-21.801-2.1992-27.398 7.3984-5.6016 9.6016-2.1992 21.801 7.3984 27.398l33.801 19.602c-27.199 41.398-62.602 77-104.2 104.2l-19.602-33.801c-5.6016-9.6016-17.801-12.801-27.398-7.3984-9.6016 5.6016-12.801 17.801-7.3984 27.398l19.602 33.801c-43.199 22-91.199 35.199-142.2 38l-0.003907-39.195c0-11-9-20-20-20s-20 9-20 20v39c-51-2.8008-99-16.199-142.2-38l19.602-33.801c5.6016-9.6016 2.1992-21.801-7.3984-27.398-9.6016-5.6016-21.801-2.1992-27.398 7.3984l-19.602 33.801c-41.398-27.199-77-62.602-104.2-104.2l33.801-19.602c9.6016-5.6016 12.801-17.801 7.3984-27.398-5.6016-9.6016-17.801-12.801-27.398-7.3984l-33.801 19.602c-22-43.199-35.199-91.199-38-142.2l39.395-0.003907c11 0 20-9 20-20s-9-20-20-20h-39c2.8008-51 16.199-99 38-142.2l33.801 19.602c3.1992 1.8008 6.6016 2.6016 10 2.6016 7 0 13.602-3.6016 17.398-10 5.6016-9.6016 2.1992-21.801-7.3984-27.398l-33.801-19.602c27.199-41.398 62.602-77 104.2-104.2l19.602 33.801c3.8008 6.3984 10.398 10 17.398 10 3.3984 0 6.8008-0.80078 10-2.6016 9.6016-5.6016 12.801-17.801 7.3984-27.398l-19.602-33.801c43.199-22 91.199-35.199 142.2-38l0.003907 39.395c0 11 9 20 20 20s20-9 20-20v-39c51 2.8008 99 16.199 142.2 38l-19.602 33.801c-5.6016 9.6016-2.1992 21.801 7.3984 27.398 3.1992 1.8008 6.6016 2.6016 10 2.6016 7 0 13.602-3.6016 17.398-10l19.602-33.801c41.398 27.199 77 62.602 104.2 104.2l-33.801 19.602c-9.9922 5.3984-13.395 17.598-7.793 27.199zm-259.8-250c72.398 0 140.4 19.199 199 53.199 0.39844 0 0.60156 0.19922 0.80078 0.39844-0.60156-0.19922-1.1992-0.39844-1.8008-0.60156-58.398-33.598-126-52.996-198-52.996s-139.6 19.398-198 53c-0.60156 0.19922-1.1992 0.39844-1.8008 0.60156 0.19922-0.19922 0.39844-0.39844 0.80078-0.39844 58.602-34.004 126.6-53.203 199-53.203zm-200.8 54.199c0.19922-0.19922 0.39844-0.39844 0.60156-0.60156-0.80078 0.39844-1.1992 1.1992-1.8008 1.6016-59 34.602-108 83.801-142.8 142.8-0.60156 0.60156-1.1992 1.1992-1.6016 1.8008 0.19922-0.39844 0.39844-0.60156 0.60156-0.80078 34.801-59.801 85-110 145-144.8zm-199.2 345.8c0-72.398 19.199-140.4 53.199-199 0-0.39844 0.19922-0.60156 0.39844-1-0.39844 0.60156-0.39844 1.1992-0.60156 1.8008-33.598 58.598-52.996 126.2-52.996 198.2s19.398 139.6 53 198c0.19922 0.60156 0.39844 1.1992 0.60156 1.8008-0.19922-0.39844-0.39844-0.60156-0.39844-1-34.004-58.402-53.203-126.4-53.203-198.8zm54.199 200.8c-0.19922-0.19922-0.19922-0.39844-0.39844-0.60156 0.60156 1 1.3984 2 2.1992 3 34.602 58.398 83.398 107 142 141.4 0.60156 0.60156 1.1992 1.1992 1.8008 1.6016-0.19922-0.19922-0.60156-0.39844-0.60156-0.60156-60-34.598-110.2-84.797-145-144.8zm147 146.2c0.60156 0.19922 1 0.39844 1.6016 0.60156 58.199 33.199 125.4 52.398 197.2 52.398s139-19.199 197.2-52.398c0.60156-0.19922 1-0.39844 1.6016-0.60156-58.602 33.801-126.4 53-198.8 53s-140.2-19.199-198.8-53zm399.6-1.1992c-0.19922 0.19922-0.39844 0.39844-0.60156 0.60156 0.80078-0.39844 1.1992-1.1992 1.8008-1.6016 58.398-34.398 107.4-83.199 142-141.4 0.80078-1 1.6016-1.8008 2.1992-3-0.19922 0.19922-0.19922 0.39844-0.39844 0.60156-34.801 59.797-85 110-145 144.8zm199.2-345.8c0 72.398-19.199 140.4-53.199 199 0 0.39844-0.19922 0.60156-0.39844 1 0.39844-0.60156 0.39844-1.1992 0.60156-1.8008 33.598-58.598 52.996-126.2 52.996-198.2s-19.398-139.6-53-198c-0.19922-0.60156-0.39844-1.1992-0.60156-1.8008 0.19922 0.39844 0.39844 0.60156 0.39844 1 34.004 58.402 53.203 126.4 53.203 198.8zm-53.602-200c-0.39844-0.80078-1.1992-1.1992-1.6016-1.8008-34.602-59-83.801-108.2-142.8-142.8-0.60156-0.60156-1.1992-1.1992-1.8008-1.6016 0.19922 0.19922 0.60156 0.39844 0.60156 0.60156 60 34.801 110.2 85 145 145 0.20312 0 0.40234 0.20312 0.60156 0.60156z"/>
  <path d="m651.8 629.6c5-8.8008 8.1992-18.801 8.1992-29.602 0-26-16.801-48-40-56.199v-183.8c0-11-9-20-20-20s-20 9-20 20v183.8c-23.199 8.3984-40 30.398-40 56.199 0 33 27 60 60 60 7.6016 0 14.801-1.6016 21.602-4.1992l83.398 97.199c3.8008 4.6016 9.3984 7 15 7 4.6016 0 9.1992-1.6016 13-4.8008 8.3984-7.1992 9.3984-19.801 2.1992-28.199z"/>
 </g>
</svg>
