<?xml version="1.0" encoding="UTF-8"?>
<svg width="1200pt" height="1200pt" version="1.1" viewBox="0 0 1200 1200" xmlns="http://www.w3.org/2000/svg">
 <g fill="#fff">
  <path d="m679.2 924c-8.3984-8.3984-19.199-15.602-31.199-19.199-18 12-38.398 19.199-61.199 19.199s-44.398-7.1992-62.398-19.199c-31.199 10.801-54 40.801-54 75.602v50.398c0 8.3984 7.1992 15.602 15.602 15.602h181.2c-1.1992-4.8008-2.3984-10.801-2.3984-15.602v-50.398c-0.003907-20.402 4.7969-39.602 14.395-56.402z"/>
  <path d="m586.8 884.4c38.398 0 69.602-31.199 69.602-69.602 0-38.398-31.199-69.602-69.602-69.602-38.398 0-69.602 31.199-69.602 69.602-1.1992 37.203 31.199 69.602 69.602 69.602z"/>
  <path d="m1116 903.6c-18 12-38.398 19.199-61.199 19.199s-44.398-7.1992-62.398-19.199c-12 3.6016-22.801 10.801-31.199 19.199 9.6016 16.801 14.398 36 14.398 56.398v50.398c0 4.8008-1.1992 10.801-2.3984 15.602h181.2c8.3984 0 15.602-7.1992 15.602-15.602v-50.398c-0.003906-34.801-22.805-63.598-54.004-75.598z"/>
  <path d="m1053.6 884.4c38.398 0 69.602-31.199 69.602-69.602 0-38.398-31.199-69.602-69.602-69.602-38.398 0-69.602 31.199-69.602 69.602 0 37.203 31.199 69.602 69.602 69.602z"/>
  <path d="m561.6 429.6-4.8008-4.8008 13.199-48c1.1992-6-1.1992-12-7.1992-13.199-6-1.1992-12 2.3984-13.199 7.1992l-13.199 45.602c-10.801-1.1992-21.602 1.1992-30 8.3984-12 9.6016-51.602 38.398-81.602 38.398-14.398 1.1992-28.801-4.8008-46.801-12-28.801-10.801-64.801-24-116.4-24-152.4 0-222 102-224.4 105.6-9.6016 13.199-9.6016 30-1.2031 43.199l61.199 100.8c7.1992 12 20.398 19.199 33.602 19.199 7.1992 0 14.398-2.3984 20.398-6 7.1992-4.8008 12-10.801 15.602-18l-3.6016 328.8c0 24 19.199 44.398 43.199 44.398s43.199-19.199 43.199-43.199l3.6016-278.4h18l49.199 124.8 1.1992 152.4c0 24 19.199 43.199 43.199 43.199s43.199-20.398 43.199-44.398l-1.1992-160.8c0-6-1.1992-10.801-3.6016-15.602l-50.398-126-1.1992-172.8c21.602 8.3984 43.199 15.602 69.602 15.602h1.1992c63.602 0 124.8-51.602 132-57.602 19.203-10.797 21.602-36 7.2031-52.797zm-394.8 211.2c-1.1992-2.3984-1.1992-3.6016-2.3984-4.8008l-46.801-76.801c10.801-10.801 27.602-22.801 50.398-33.602z"/>
  <path d="m349.2 316.8c0 48.379-39.219 87.598-87.598 87.598-48.383 0-87.602-39.219-87.602-87.598 0-48.383 39.219-87.602 87.602-87.602 48.379 0 87.598 39.219 87.598 87.602"/>
  <path d="m1148.4 153.6h-687.6c-12 0-21.602 9.6016-21.602 21.602v247.2c13.199-4.8008 31.199-15.602 43.199-26.398v-198h644.4v417.6h-74.398v-15.602c0-9.6016-8.3984-18-18-18h-93.602c-9.6016 0-18 8.3984-18 18v15.602h-440.4v-45.602c-13.199 4.8008-28.801 8.3984-43.199 8.3984v91.199c0 12 9.6016 21.602 21.602 21.602h687.6c12 0 21.602-9.6016 21.602-21.602l-0.003906-493.2c0-12-9.6016-22.797-21.602-22.797z"/>
  <path d="m1040.4 268.8h-472.8c-12 0-21.602 9.6016-21.602 21.602s9.6016 21.602 21.602 21.602h472.8c12 0 21.602-9.6016 21.602-21.602-0.003906-12.004-9.6055-21.602-21.605-21.602z"/>
  <path d="m1040.4 378h-408c-12 0-21.602 9.6016-21.602 21.602s9.6016 21.602 21.602 21.602h408c12 0 21.602-9.6016 21.602-21.602s-9.6016-21.602-21.602-21.602z"/>
  <path d="m1040.4 487.2h-408c-12 0-21.602 9.6016-21.602 21.602s9.6016 21.602 21.602 21.602h408c12 0 21.602-9.6016 21.602-21.602s-9.6016-21.602-21.602-21.602z"/>
  <path d="m882 903.6c-18 12-38.398 19.199-62.398 19.199s-44.398-7.1992-62.398-19.199c-31.199 10.801-54 40.801-54 75.602v50.398c0 8.3984 7.1992 15.602 15.602 15.602h200.4c8.3984 0 15.602-7.1992 15.602-15.602v-50.398c1.1953-34.805-21.605-63.602-52.805-75.602z"/>
  <path d="m820.8 884.4c38.398 0 69.602-31.199 69.602-69.602 0-38.398-31.199-69.602-69.602-69.602-38.398 0-69.602 31.199-69.602 69.602-1.1992 38.402 30 69.602 69.602 69.602z"/>
 </g>
</svg>
